<mxfile host="app.diagrams.net" modified="2023-01-10T07:05:59.869Z" agent="5.0 (Macintosh; Intel Mac OS X 10_14_3) AppleWebKit/537.36 (KHTML, like Gecko) Chrome/108.0.0.0 Safari/537.36" version="20.8.3" etag="AYncb1CHpHS351vLnPEb" type="github">
  <diagram id="pu3_JijNAUoEfeqNy37S" name="第 1 页">
    <mxGraphModel dx="2021" dy="1878" grid="1" gridSize="10" guides="1" tooltips="1" connect="1" arrows="1" fold="1" page="1" pageScale="1" pageWidth="827" pageHeight="1169" math="0" shadow="0">
      <root>
        <mxCell id="0" />
        <mxCell id="1" parent="0" />
        <mxCell id="HrKcoDEsN2WtxK-mfQLJ-1" value="" style="rounded=0;whiteSpace=wrap;html=1;" vertex="1" parent="1">
          <mxGeometry x="-40" y="50" width="1380" height="350" as="geometry" />
        </mxCell>
        <mxCell id="HrKcoDEsN2WtxK-mfQLJ-2" value="" style="rounded=0;whiteSpace=wrap;html=1;" vertex="1" parent="1">
          <mxGeometry x="700" y="150" width="210" height="230" as="geometry" />
        </mxCell>
        <mxCell id="HrKcoDEsN2WtxK-mfQLJ-3" value="" style="rounded=0;whiteSpace=wrap;html=1;" vertex="1" parent="1">
          <mxGeometry x="-10" y="150" width="700" height="230" as="geometry" />
        </mxCell>
        <mxCell id="HrKcoDEsN2WtxK-mfQLJ-4" value="&lt;font style=&quot;font-size: 16px&quot;&gt;赵秦（深圳）&lt;br&gt;架构师&lt;br&gt;（业务软件方向）&lt;br&gt;&lt;br&gt;&lt;/font&gt;" style="rounded=1;whiteSpace=wrap;html=1;fillColor=#ffe6cc;strokeColor=#d79b00;" vertex="1" parent="1">
          <mxGeometry y="200" width="140" height="170" as="geometry" />
        </mxCell>
        <mxCell id="HrKcoDEsN2WtxK-mfQLJ-5" value="&lt;font style=&quot;font-size: 16px&quot;&gt;&lt;b&gt;姜绍忠（深圳）&lt;br&gt;&lt;/b&gt;架构师&lt;br&gt;（平台软件方向）&lt;br&gt;&lt;br&gt;&lt;/font&gt;" style="rounded=1;whiteSpace=wrap;html=1;fillColor=#ffe6cc;strokeColor=#d79b00;" vertex="1" parent="1">
          <mxGeometry x="160" y="200" width="140" height="170" as="geometry" />
        </mxCell>
        <mxCell id="HrKcoDEsN2WtxK-mfQLJ-6" value="&lt;font style=&quot;font-size: 16px&quot;&gt;IRDC 架构 + 平台 资源池&lt;/font&gt;" style="text;html=1;strokeColor=none;fillColor=none;align=center;verticalAlign=middle;whiteSpace=wrap;rounded=0;" vertex="1" parent="1">
          <mxGeometry x="520" y="50" width="230" height="20" as="geometry" />
        </mxCell>
        <mxCell id="HrKcoDEsN2WtxK-mfQLJ-7" value="&lt;span style=&quot;font-size: 16px&quot;&gt;&lt;b&gt;崔盛平（新加坡）&lt;/b&gt;&lt;/span&gt;" style="rounded=1;whiteSpace=wrap;html=1;fillColor=#ffe6cc;strokeColor=#d79b00;" vertex="1" parent="1">
          <mxGeometry x="390" y="200" width="290" height="60" as="geometry" />
        </mxCell>
        <mxCell id="HrKcoDEsN2WtxK-mfQLJ-8" value="&lt;span style=&quot;font-size: 16px&quot;&gt;&lt;b&gt;吴佳成（新加坡）&lt;/b&gt;&lt;/span&gt;" style="rounded=1;whiteSpace=wrap;html=1;fillColor=#d5e8d4;strokeColor=#82b366;" vertex="1" parent="1">
          <mxGeometry x="710" y="200" width="190" height="60" as="geometry" />
        </mxCell>
        <mxCell id="HrKcoDEsN2WtxK-mfQLJ-9" value="&lt;span style=&quot;font-size: 16px&quot;&gt;马明亮&lt;br&gt;（深圳）&lt;/span&gt;" style="rounded=1;whiteSpace=wrap;html=1;fillColor=#ffe6cc;strokeColor=#d79b00;" vertex="1" parent="1">
          <mxGeometry x="390" y="310" width="90" height="60" as="geometry" />
        </mxCell>
        <mxCell id="HrKcoDEsN2WtxK-mfQLJ-10" value="&lt;span style=&quot;font-size: 16px&quot;&gt;戴云川&lt;br&gt;（成都）&lt;/span&gt;" style="rounded=1;whiteSpace=wrap;html=1;fillColor=#ffe6cc;strokeColor=#d79b00;" vertex="1" parent="1">
          <mxGeometry x="490" y="310" width="90" height="60" as="geometry" />
        </mxCell>
        <mxCell id="HrKcoDEsN2WtxK-mfQLJ-11" value="&lt;span style=&quot;font-size: 16px&quot;&gt;郑柏屹&lt;br&gt;（深圳）&lt;/span&gt;" style="rounded=1;whiteSpace=wrap;html=1;fillColor=#d5e8d4;strokeColor=#82b366;" vertex="1" parent="1">
          <mxGeometry x="710" y="310" width="90" height="60" as="geometry" />
        </mxCell>
        <mxCell id="HrKcoDEsN2WtxK-mfQLJ-12" value="&lt;span style=&quot;font-size: 16px&quot;&gt;武文轩&lt;br&gt;（新加坡）&lt;/span&gt;" style="rounded=1;whiteSpace=wrap;html=1;fillColor=#d5e8d4;strokeColor=#82b366;" vertex="1" parent="1">
          <mxGeometry x="810" y="310" width="90" height="60" as="geometry" />
        </mxCell>
        <mxCell id="HrKcoDEsN2WtxK-mfQLJ-13" value="&lt;span style=&quot;font-size: 16px&quot;&gt;王杨东&lt;br&gt;（成都）&lt;/span&gt;" style="rounded=1;whiteSpace=wrap;html=1;fillColor=#ffe6cc;strokeColor=#d79b00;" vertex="1" parent="1">
          <mxGeometry x="590" y="310" width="90" height="60" as="geometry" />
        </mxCell>
        <mxCell id="HrKcoDEsN2WtxK-mfQLJ-14" value="途灵SenseX（IBG + ABG）&lt;br style=&quot;font-size: 16px;&quot;&gt;IBG项目 + ABG 项目 + 标准化产品" style="rounded=0;whiteSpace=wrap;html=1;fillColor=#ffe6cc;strokeColor=#d79b00;fontSize=16;" vertex="1" parent="1">
          <mxGeometry x="-30" y="-40" width="479" height="60" as="geometry" />
        </mxCell>
        <mxCell id="HrKcoDEsN2WtxK-mfQLJ-15" value="IR&lt;br style=&quot;font-size: 16px;&quot;&gt;ABG 项目 + 标准化产品" style="rounded=0;whiteSpace=wrap;html=1;fillColor=#d5e8d4;strokeColor=#82b366;fontSize=16;" vertex="1" parent="1">
          <mxGeometry x="510" y="-40" width="400" height="60" as="geometry" />
        </mxCell>
        <mxCell id="HrKcoDEsN2WtxK-mfQLJ-16" value="&lt;font style=&quot;font-size: 16px&quot;&gt;IRDC部门&lt;/font&gt;" style="rounded=0;whiteSpace=wrap;html=1;fillColor=#f8cecc;strokeColor=#b85450;" vertex="1" parent="1">
          <mxGeometry x="-40" y="-160" width="1380" height="50" as="geometry" />
        </mxCell>
        <mxCell id="HrKcoDEsN2WtxK-mfQLJ-17" value="&lt;font size=&quot;1&quot;&gt;&lt;b style=&quot;font-size: 20px&quot;&gt;部门业务支撑维度&lt;/b&gt;&lt;/font&gt;" style="text;html=1;strokeColor=none;fillColor=none;align=center;verticalAlign=middle;whiteSpace=wrap;rounded=0;dashed=1;" vertex="1" parent="1">
          <mxGeometry x="-90" y="245" width="30" height="20" as="geometry" />
        </mxCell>
        <mxCell id="HrKcoDEsN2WtxK-mfQLJ-18" value="" style="rounded=0;whiteSpace=wrap;html=1;fontSize=16;" vertex="1" parent="1">
          <mxGeometry x="-40" y="500" width="310" height="240" as="geometry" />
        </mxCell>
        <mxCell id="HrKcoDEsN2WtxK-mfQLJ-19" value="&lt;font style=&quot;font-size: 16px&quot;&gt;&lt;b&gt;姜绍忠&lt;/b&gt;&lt;/font&gt;" style="rounded=1;whiteSpace=wrap;html=1;fillColor=#ffe6cc;strokeColor=#d79b00;" vertex="1" parent="1">
          <mxGeometry x="-10" y="570" width="110" height="60" as="geometry" />
        </mxCell>
        <mxCell id="HrKcoDEsN2WtxK-mfQLJ-20" value="&lt;font style=&quot;font-size: 16px&quot;&gt;赵秦&lt;/font&gt;" style="rounded=1;whiteSpace=wrap;html=1;fillColor=#ffe6cc;strokeColor=#d79b00;" vertex="1" parent="1">
          <mxGeometry x="130" y="570" width="110" height="60" as="geometry" />
        </mxCell>
        <mxCell id="HrKcoDEsN2WtxK-mfQLJ-21" value="&lt;span style=&quot;font-size: 16px&quot;&gt;马明亮&lt;br&gt;&lt;/span&gt;" style="rounded=1;whiteSpace=wrap;html=1;fillColor=#ffe6cc;strokeColor=#d79b00;" vertex="1" parent="1">
          <mxGeometry x="-10" y="650" width="110" height="60" as="geometry" />
        </mxCell>
        <mxCell id="HrKcoDEsN2WtxK-mfQLJ-22" value="&lt;span style=&quot;font-size: 16px&quot;&gt;郑柏屹&lt;br&gt;&lt;/span&gt;" style="rounded=1;whiteSpace=wrap;html=1;fillColor=#d5e8d4;strokeColor=#82b366;" vertex="1" parent="1">
          <mxGeometry x="130" y="650" width="110" height="60" as="geometry" />
        </mxCell>
        <mxCell id="HrKcoDEsN2WtxK-mfQLJ-23" value="&lt;font style=&quot;font-size: 16px&quot;&gt;深圳团队自治小组&lt;/font&gt;" style="text;html=1;strokeColor=none;fillColor=none;align=center;verticalAlign=middle;whiteSpace=wrap;rounded=0;" vertex="1" parent="1">
          <mxGeometry y="520" width="230" height="20" as="geometry" />
        </mxCell>
        <mxCell id="HrKcoDEsN2WtxK-mfQLJ-24" value="" style="rounded=0;whiteSpace=wrap;html=1;fontSize=16;" vertex="1" parent="1">
          <mxGeometry x="330" y="500" width="310" height="240" as="geometry" />
        </mxCell>
        <mxCell id="HrKcoDEsN2WtxK-mfQLJ-25" value="&lt;span style=&quot;font-size: 16px&quot;&gt;&lt;b&gt;雷震宇&lt;/b&gt;&lt;/span&gt;" style="rounded=1;whiteSpace=wrap;html=1;fillColor=#e1d5e7;strokeColor=#9673a6;" vertex="1" parent="1">
          <mxGeometry x="360" y="570" width="110" height="60" as="geometry" />
        </mxCell>
        <mxCell id="HrKcoDEsN2WtxK-mfQLJ-26" value="&lt;font style=&quot;font-size: 16px&quot;&gt;成都&lt;/font&gt;&lt;span style=&quot;font-size: 16px&quot;&gt;团队自治小组&lt;/span&gt;" style="text;html=1;strokeColor=none;fillColor=none;align=center;verticalAlign=middle;whiteSpace=wrap;rounded=0;" vertex="1" parent="1">
          <mxGeometry x="380" y="520" width="230" height="20" as="geometry" />
        </mxCell>
        <mxCell id="HrKcoDEsN2WtxK-mfQLJ-27" value="&lt;span style=&quot;font-size: 16px&quot;&gt;戴云川&lt;br&gt;&lt;/span&gt;" style="rounded=1;whiteSpace=wrap;html=1;fillColor=#ffe6cc;strokeColor=#d79b00;" vertex="1" parent="1">
          <mxGeometry x="500" y="570" width="110" height="60" as="geometry" />
        </mxCell>
        <mxCell id="HrKcoDEsN2WtxK-mfQLJ-28" value="&lt;span style=&quot;font-size: 16px&quot;&gt;王杨东&lt;br&gt;&lt;/span&gt;" style="rounded=1;whiteSpace=wrap;html=1;fillColor=#ffe6cc;strokeColor=#d79b00;" vertex="1" parent="1">
          <mxGeometry x="500" y="650" width="110" height="60" as="geometry" />
        </mxCell>
        <mxCell id="HrKcoDEsN2WtxK-mfQLJ-29" value="" style="rounded=0;whiteSpace=wrap;html=1;fontSize=16;" vertex="1" parent="1">
          <mxGeometry x="700" y="500" width="310" height="240" as="geometry" />
        </mxCell>
        <mxCell id="HrKcoDEsN2WtxK-mfQLJ-30" value="&lt;font style=&quot;font-size: 16px&quot;&gt;新加坡&lt;/font&gt;&lt;span style=&quot;font-size: 16px&quot;&gt;团队自治小组&lt;/span&gt;" style="text;html=1;strokeColor=none;fillColor=none;align=center;verticalAlign=middle;whiteSpace=wrap;rounded=0;" vertex="1" parent="1">
          <mxGeometry x="750" y="520" width="230" height="20" as="geometry" />
        </mxCell>
        <mxCell id="HrKcoDEsN2WtxK-mfQLJ-31" value="&lt;span style=&quot;font-size: 16px&quot;&gt;&lt;b&gt;崔盛平&lt;/b&gt;&lt;/span&gt;&lt;span style=&quot;font-size: 16px&quot;&gt;&lt;br&gt;&lt;/span&gt;" style="rounded=1;whiteSpace=wrap;html=1;fillColor=#ffe6cc;strokeColor=#d79b00;" vertex="1" parent="1">
          <mxGeometry x="730" y="570" width="110" height="60" as="geometry" />
        </mxCell>
        <mxCell id="HrKcoDEsN2WtxK-mfQLJ-32" value="&lt;span style=&quot;font-size: 16px&quot;&gt;&lt;b&gt;吴佳成&lt;/b&gt;&lt;/span&gt;&lt;span style=&quot;font-size: 16px&quot;&gt;&lt;br&gt;&lt;/span&gt;" style="rounded=1;whiteSpace=wrap;html=1;fillColor=#d5e8d4;strokeColor=#82b366;" vertex="1" parent="1">
          <mxGeometry x="870" y="570" width="110" height="60" as="geometry" />
        </mxCell>
        <mxCell id="HrKcoDEsN2WtxK-mfQLJ-33" value="&lt;span style=&quot;font-size: 16px&quot;&gt;武文轩&lt;/span&gt;&lt;span style=&quot;font-size: 16px&quot;&gt;&lt;br&gt;&lt;/span&gt;" style="rounded=1;whiteSpace=wrap;html=1;fillColor=#d5e8d4;strokeColor=#82b366;" vertex="1" parent="1">
          <mxGeometry x="870" y="650" width="110" height="60" as="geometry" />
        </mxCell>
        <mxCell id="HrKcoDEsN2WtxK-mfQLJ-34" value="&lt;font size=&quot;1&quot;&gt;&lt;b style=&quot;font-size: 20px&quot;&gt;资源池管理地域维度&lt;/b&gt;&lt;/font&gt;" style="text;html=1;strokeColor=none;fillColor=none;align=center;verticalAlign=middle;whiteSpace=wrap;rounded=0;dashed=1;" vertex="1" parent="1">
          <mxGeometry x="-90" y="600" width="30" height="20" as="geometry" />
        </mxCell>
        <mxCell id="HrKcoDEsN2WtxK-mfQLJ-35" value="" style="shape=flexArrow;endArrow=classic;html=1;fontSize=16;endWidth=28;endSize=7.67;width=24;fillColor=#f8cecc;strokeColor=#b85450;" edge="1" parent="1">
          <mxGeometry width="50" height="50" relative="1" as="geometry">
            <mxPoint x="710" y="-50" as="sourcePoint" />
            <mxPoint x="710" y="-110" as="targetPoint" />
          </mxGeometry>
        </mxCell>
        <mxCell id="HrKcoDEsN2WtxK-mfQLJ-36" value="&lt;font style=&quot;font-size: 16px&quot;&gt;业务软件资源池&lt;/font&gt;" style="rounded=0;whiteSpace=wrap;html=1;" vertex="1" parent="1">
          <mxGeometry x="-350" y="210" width="120" height="60" as="geometry" />
        </mxCell>
        <mxCell id="HrKcoDEsN2WtxK-mfQLJ-37" value="" style="endArrow=none;dashed=1;html=1;dashPattern=1 3;strokeWidth=2;exitX=1;exitY=0.5;exitDx=0;exitDy=0;startArrow=classic;startFill=1;" edge="1" parent="1" source="HrKcoDEsN2WtxK-mfQLJ-36">
          <mxGeometry width="50" height="50" relative="1" as="geometry">
            <mxPoint x="-240" y="350" as="sourcePoint" />
            <mxPoint y="240" as="targetPoint" />
          </mxGeometry>
        </mxCell>
        <mxCell id="HrKcoDEsN2WtxK-mfQLJ-38" value="" style="endArrow=classic;dashed=1;html=1;dashPattern=1 3;strokeWidth=2;exitX=1;exitY=0.5;exitDx=0;exitDy=0;endFill=1;" edge="1" parent="1" source="HrKcoDEsN2WtxK-mfQLJ-5">
          <mxGeometry width="50" height="50" relative="1" as="geometry">
            <mxPoint x="370" y="480" as="sourcePoint" />
            <mxPoint x="350" y="285" as="targetPoint" />
          </mxGeometry>
        </mxCell>
        <mxCell id="HrKcoDEsN2WtxK-mfQLJ-39" value="" style="labelPosition=right;align=left;strokeWidth=2;shape=mxgraph.mockup.markup.curlyBrace;html=1;shadow=0;dashed=0;direction=north;" vertex="1" parent="1">
          <mxGeometry x="360" y="200" width="20" height="170" as="geometry" />
        </mxCell>
        <mxCell id="HrKcoDEsN2WtxK-mfQLJ-40" value="资源池负责人：雷震宇" style="rounded=0;whiteSpace=wrap;html=1;fillColor=#e1d5e7;strokeColor=#9673a6;fontSize=16;" vertex="1" parent="1">
          <mxGeometry x="-40" y="440" width="1050" height="40" as="geometry" />
        </mxCell>
        <mxCell id="HrKcoDEsN2WtxK-mfQLJ-41" value="" style="endArrow=none;dashed=1;html=1;dashPattern=1 1;strokeWidth=3;" edge="1" parent="1">
          <mxGeometry width="50" height="50" relative="1" as="geometry">
            <mxPoint x="-381" y="420" as="sourcePoint" />
            <mxPoint x="1370" y="420" as="targetPoint" />
          </mxGeometry>
        </mxCell>
        <mxCell id="HrKcoDEsN2WtxK-mfQLJ-42" value="AIoT&lt;br&gt;ABG 项目 + &lt;br&gt;标准化产品" style="rounded=0;whiteSpace=wrap;html=1;fillColor=#dae8fc;strokeColor=#6c8ebf;fontSize=16;" vertex="1" parent="1">
          <mxGeometry x="1200" y="-40" width="130" height="60" as="geometry" />
        </mxCell>
        <mxCell id="HrKcoDEsN2WtxK-mfQLJ-43" value="" style="shape=flexArrow;endArrow=classic;html=1;entryX=0.5;entryY=1;entryDx=0;entryDy=0;fillColor=#dae8fc;strokeColor=#6c8ebf;dashed=1;" edge="1" parent="1">
          <mxGeometry width="50" height="50" relative="1" as="geometry">
            <mxPoint x="1264.5" y="80" as="sourcePoint" />
            <mxPoint x="1264.5" y="20" as="targetPoint" />
          </mxGeometry>
        </mxCell>
        <mxCell id="HrKcoDEsN2WtxK-mfQLJ-44" value="" style="rounded=0;whiteSpace=wrap;html=1;dashed=1;" vertex="1" parent="1">
          <mxGeometry x="920" y="-50" width="130" height="430" as="geometry" />
        </mxCell>
        <mxCell id="HrKcoDEsN2WtxK-mfQLJ-45" value="&lt;span style=&quot;font-size: 16px&quot;&gt;罗雕&lt;/span&gt;" style="rounded=1;whiteSpace=wrap;html=1;fillColor=#dae8fc;strokeColor=#6c8ebf;dashed=1;" vertex="1" parent="1">
          <mxGeometry x="930" y="310" width="110" height="60" as="geometry" />
        </mxCell>
        <mxCell id="HrKcoDEsN2WtxK-mfQLJ-46" value="" style="rounded=0;whiteSpace=wrap;html=1;dashed=1;" vertex="1" parent="1">
          <mxGeometry x="1060" y="-50" width="130" height="430" as="geometry" />
        </mxCell>
        <mxCell id="HrKcoDEsN2WtxK-mfQLJ-47" value="&lt;span style=&quot;font-size: 16px&quot;&gt;&lt;b&gt;孙栋梁&lt;/b&gt;&lt;/span&gt;" style="rounded=1;whiteSpace=wrap;html=1;fillColor=#dae8fc;strokeColor=#6c8ebf;dashed=1;" vertex="1" parent="1">
          <mxGeometry x="1070" y="200" width="110" height="60" as="geometry" />
        </mxCell>
        <mxCell id="HrKcoDEsN2WtxK-mfQLJ-48" value="DX&lt;br&gt;项目 + &lt;br&gt;标准化产品" style="rounded=0;whiteSpace=wrap;html=1;fillColor=#dae8fc;strokeColor=#6c8ebf;fontSize=16;" vertex="1" parent="1">
          <mxGeometry x="930" y="-40" width="110" height="60" as="geometry" />
        </mxCell>
        <mxCell id="HrKcoDEsN2WtxK-mfQLJ-49" value="SI&lt;br&gt;ABG 项目 + &lt;br&gt;标准化产品" style="rounded=0;whiteSpace=wrap;html=1;fillColor=#dae8fc;strokeColor=#6c8ebf;fontSize=16;" vertex="1" parent="1">
          <mxGeometry x="1070" y="-40" width="110" height="60" as="geometry" />
        </mxCell>
        <mxCell id="HrKcoDEsN2WtxK-mfQLJ-50" value="" style="shape=flexArrow;endArrow=classic;html=1;entryX=0.5;entryY=1;entryDx=0;entryDy=0;fillColor=#dae8fc;strokeColor=#6c8ebf;dashed=1;" edge="1" parent="1">
          <mxGeometry width="50" height="50" relative="1" as="geometry">
            <mxPoint x="985" y="80" as="sourcePoint" />
            <mxPoint x="985" y="20" as="targetPoint" />
          </mxGeometry>
        </mxCell>
        <mxCell id="HrKcoDEsN2WtxK-mfQLJ-51" value="" style="shape=flexArrow;endArrow=classic;html=1;entryX=0.5;entryY=1;entryDx=0;entryDy=0;fillColor=#dae8fc;strokeColor=#6c8ebf;dashed=1;" edge="1" parent="1">
          <mxGeometry width="50" height="50" relative="1" as="geometry">
            <mxPoint x="1124.5" y="80" as="sourcePoint" />
            <mxPoint x="1124.5" y="20" as="targetPoint" />
          </mxGeometry>
        </mxCell>
        <mxCell id="HrKcoDEsN2WtxK-mfQLJ-52" value="资源池负责人：雷震宇" style="rounded=0;whiteSpace=wrap;html=1;fillColor=#e1d5e7;strokeColor=#9673a6;fontSize=16;" vertex="1" parent="1">
          <mxGeometry x="-30" y="90" width="1360" height="40" as="geometry" />
        </mxCell>
        <mxCell id="HrKcoDEsN2WtxK-mfQLJ-53" value="" style="shape=flexArrow;endArrow=classic;html=1;fillColor=#d5e8d4;strokeColor=#82b366;exitX=0.5;exitY=0;exitDx=0;exitDy=0;" edge="1" parent="1">
          <mxGeometry width="50" height="50" relative="1" as="geometry">
            <mxPoint x="805" y="149" as="sourcePoint" />
            <mxPoint x="804" y="22" as="targetPoint" />
          </mxGeometry>
        </mxCell>
        <mxCell id="HrKcoDEsN2WtxK-mfQLJ-54" value="" style="shape=flexArrow;endArrow=classic;html=1;entryX=0.5;entryY=1;entryDx=0;entryDy=0;fillColor=#ffe6cc;strokeColor=#d79b00;" edge="1" parent="1" target="HrKcoDEsN2WtxK-mfQLJ-14">
          <mxGeometry width="50" height="50" relative="1" as="geometry">
            <mxPoint x="210" y="150" as="sourcePoint" />
            <mxPoint x="40" y="150" as="targetPoint" />
          </mxGeometry>
        </mxCell>
        <mxCell id="HrKcoDEsN2WtxK-mfQLJ-55" value="&lt;span style=&quot;font-size: 16px&quot;&gt;&lt;b&gt;吴春虎&lt;/b&gt;&lt;/span&gt;" style="rounded=1;whiteSpace=wrap;html=1;fillColor=#dae8fc;strokeColor=#6c8ebf;dashed=1;" vertex="1" parent="1">
          <mxGeometry x="930" y="200" width="110" height="60" as="geometry" />
        </mxCell>
        <mxCell id="HrKcoDEsN2WtxK-mfQLJ-56" value="&lt;span style=&quot;font-size: 16px&quot;&gt;罗雕&lt;/span&gt;" style="rounded=1;whiteSpace=wrap;html=1;fillColor=#dae8fc;strokeColor=#6c8ebf;dashed=1;" vertex="1" parent="1">
          <mxGeometry x="360" y="650" width="110" height="60" as="geometry" />
        </mxCell>
        <mxCell id="HrKcoDEsN2WtxK-mfQLJ-57" value="&lt;font style=&quot;font-size: 16px&quot;&gt;算法SDK资源池&lt;/font&gt;" style="rounded=0;whiteSpace=wrap;html=1;verticalAlign=top;" vertex="1" parent="1">
          <mxGeometry x="-350" y="290" width="120" height="100" as="geometry" />
        </mxCell>
        <mxCell id="HrKcoDEsN2WtxK-mfQLJ-58" value="&lt;span style=&quot;font-size: 16px&quot;&gt;吕科&lt;br&gt;（上海）&lt;/span&gt;" style="rounded=1;whiteSpace=wrap;html=1;fillColor=#ffe6cc;strokeColor=#d79b00;dashed=1;" vertex="1" parent="1">
          <mxGeometry x="-335" y="320" width="90" height="60" as="geometry" />
        </mxCell>
        <mxCell id="HrKcoDEsN2WtxK-mfQLJ-59" value="" style="endArrow=classic;html=1;exitX=1;exitY=0.5;exitDx=0;exitDy=0;" edge="1" parent="1" source="HrKcoDEsN2WtxK-mfQLJ-57">
          <mxGeometry width="50" height="50" relative="1" as="geometry">
            <mxPoint x="-190" y="400" as="sourcePoint" />
            <mxPoint x="-13" y="340" as="targetPoint" />
          </mxGeometry>
        </mxCell>
      </root>
    </mxGraphModel>
  </diagram>
</mxfile>
